<svg width="512" height="512" viewBox="0 0 512 512" fill="none" xmlns="http://www.w3.org/2000/svg">
<g clip-path="url(#clip0_26_2)">
<path d="M256 0C205.368 0 155.873 15.0141 113.774 43.1438C71.6751 71.2734 38.863 111.255 19.487 158.033C0.11092 204.811 -4.95873 256.284 4.91908 305.943C14.7969 355.602 39.1785 401.217 74.9808 437.019C110.783 472.822 156.398 497.203 206.057 507.081C255.716 516.959 307.189 511.889 353.967 492.513C400.745 473.137 440.727 440.325 468.856 398.226C496.986 356.127 512 306.632 512 256C512 188.105 485.029 122.99 437.019 74.9807C389.01 26.9714 323.896 0 256 0ZM320.876 231.747L316.632 267.419C316.449 269.074 315.659 270.603 314.415 271.71C313.17 272.818 311.56 273.425 309.895 273.415H272.842V379.183C272.851 380.446 272.36 381.661 271.477 382.564C270.594 383.466 269.389 383.982 268.126 384H230.4C229.772 383.991 229.152 383.859 228.575 383.61C227.998 383.362 227.475 383.002 227.037 382.552C226.6 382.101 226.255 381.569 226.023 380.985C225.79 380.401 225.675 379.778 225.684 379.149L225.886 273.415H197.827C196.041 273.415 194.327 272.705 193.064 271.442C191.8 270.178 191.091 268.465 191.091 266.678V231.04C191.091 229.253 191.8 227.54 193.064 226.276C194.327 225.013 196.041 224.303 197.827 224.303H225.684V189.743C225.684 149.76 249.499 128 284.295 128H312.825C314.612 128 316.326 128.71 317.589 129.973C318.852 131.237 319.562 132.95 319.562 134.737V164.749C319.562 166.536 318.852 168.25 317.589 169.513C316.326 170.777 314.612 171.486 312.825 171.486H295.343C276.413 171.789 272.842 180.851 272.842 194.392V224.202H314.341C315.281 224.223 316.206 224.441 317.057 224.842C317.907 225.242 318.665 225.816 319.28 226.527C319.896 227.237 320.356 228.069 320.631 228.968C320.905 229.867 320.989 230.814 320.876 231.747Z" fill="white"/>
</g>
<defs>
<clipPath id="clip0_26_2">
<rect width="512" height="512" fill="white"/>
</clipPath>
</defs>
</svg>
