<svg width="512" height="512" viewBox="0 0 512 512" fill="none" xmlns="http://www.w3.org/2000/svg">
<path d="M448.6 87.52C448.114 86.7707 447.505 86.1082 446.8 85.56C422.828 58.6297 393.429 37.0772 360.534 22.319C327.639 7.56074 291.994 -0.0690918 255.94 -0.0690918C219.886 -0.0690918 184.241 7.56074 151.346 22.319C118.451 37.0772 89.0516 58.6297 65.08 85.56C64.4099 86.0907 63.8292 86.7254 63.36 87.44V87.64C30.9982 124.66 9.98277 170.218 2.82606 218.865C-4.33065 267.513 2.67421 317.192 23.0032 361.964C43.3322 406.736 76.1251 444.706 117.462 471.335C158.798 497.964 206.929 512.125 256.1 512.125C305.271 512.125 353.402 497.964 394.738 471.335C436.075 444.706 468.868 406.736 489.197 361.964C509.526 317.192 516.531 267.513 509.374 218.865C502.217 170.218 481.202 124.66 448.84 87.64L448.6 87.52ZM440.6 409.16C422.425 398.551 403.135 389.979 383.08 383.6C395.517 344.932 402.083 304.616 402.56 264H495.8C494.093 317.199 474.665 368.303 440.6 409.2V409.16ZM16.2 264H109.44C109.913 304.63 116.479 344.959 128.92 383.64C108.865 390.019 89.5753 398.591 71.4 409.2C37.335 368.303 17.9069 317.199 16.2 264ZM72 102.2C90.0856 112.712 109.266 121.216 129.2 127.56C116.578 166.481 109.916 207.087 109.44 248H16.2C17.9433 194.522 37.5935 143.178 72 102.2ZM264 146.56C299.138 146.062 334.076 141.171 368 132C379.974 169.521 386.283 208.618 386.72 248H264V146.56ZM264 130.56V16.48C304.56 21 340 59.64 362.4 116.92C330.282 125.479 297.235 130.06 264 130.56ZM248 130.56C214.765 130.06 181.718 125.479 149.6 116.92C172 59.64 207.44 21 248 16.48V130.56ZM248 146.56V248H125.44C125.825 208.626 132.081 169.529 144 132C177.924 141.17 212.862 146.062 248 146.56ZM125.44 264H248V364.56C212.858 365.083 177.92 370.001 144 379.2C132.168 341.925 125.914 303.105 125.44 264ZM248 380.56V495.52C207.28 490.96 171.52 452 149.28 394.28C181.498 385.666 214.654 381.058 248 380.56ZM264 380.56C297.346 381.058 330.502 385.666 362.72 394.28C340.48 452 304.72 490.96 264 495.52V380.56ZM264 364.56V264H386.56C386.082 303.092 379.828 341.898 368 379.16C334.078 369.974 299.14 365.07 264 364.56ZM402.56 248C402.084 207.087 395.422 166.481 382.8 127.56C402.734 121.216 421.914 112.712 440 102.2C474.407 143.178 494.057 194.522 495.8 248H402.56ZM429.16 90.08C412.72 99.3018 395.376 106.808 377.4 112.48C362.64 74.56 342.16 44 318.16 24.2C360.482 35.6115 398.87 58.3955 429.16 90.08ZM193.84 24.2C169.84 43.88 149.4 74.52 134.64 112.48C116.664 106.808 99.3196 99.3018 82.88 90.08C113.159 58.4018 151.532 35.6181 193.84 24.2ZM82.28 421.36C98.7829 412.034 116.21 404.446 134.28 398.72C149.08 437.04 169.64 468 193.8 487.8C151.229 476.318 112.645 453.33 82.28 421.36ZM318.28 487.8C342.28 467.8 363 437.04 377.8 398.72C395.87 404.447 413.297 412.034 429.8 421.36C399.402 453.349 360.774 476.338 318.16 487.8H318.28Z" fill="white"/>
</svg>
