<svg width="813" height="333" viewBox="0 0 813 333" fill="none" xmlns="http://www.w3.org/2000/svg">
<mask id="mask0_5_5" style="mask-type:luminance" maskUnits="userSpaceOnUse" x="0" y="0" width="813" height="333">
<path d="M0 9.6519e-06H812.599V332.599H0V9.6519e-06Z" fill="white"/>
</mask>
<g mask="url(#mask0_5_5)">
<path d="M745.831 203.576C745.831 198.781 741.944 194.893 737.148 194.893C732.353 194.893 728.465 198.781 728.465 203.576C728.465 208.371 732.353 212.259 737.148 212.259C741.944 212.259 745.831 208.371 745.831 203.576Z" fill="white"/>
<path d="M339.811 167.604C338.902 166.71 338.447 165.453 338.447 163.833C338.447 162.042 338.945 160.658 339.941 159.678C340.935 158.698 342.234 157.994 343.838 157.568C345.439 157.141 347.15 156.929 348.969 156.929C352.171 156.929 355.333 157.557 358.45 158.812C361.569 160.068 364.858 162.038 368.322 164.722L375.337 153.681C371.785 150.304 367.846 147.858 363.517 146.342C359.186 144.828 354.597 144.069 349.747 144.069C344.205 144.069 339.377 144.968 335.265 146.762C331.151 148.557 327.946 151.057 325.653 154.264C323.358 157.47 322.211 161.294 322.211 165.738C322.211 169.414 323.055 172.428 324.743 174.778C326.433 177.129 328.965 179.073 332.342 180.612C335.719 182.15 339.919 183.733 344.942 185.356C347.973 186.21 350.547 186.98 352.67 187.664C354.791 188.348 356.415 189.14 357.542 190.037C358.666 190.933 359.23 192.194 359.23 193.818C359.23 196.156 358.211 197.909 356.178 199.078C354.142 200.248 351.437 200.832 348.059 200.832C344.422 200.832 340.633 200.053 336.694 198.494C332.753 196.936 328.749 194.512 324.679 191.22L318.445 202.521C322.254 206.245 326.799 209.06 332.082 210.964C337.363 212.868 342.906 213.821 348.709 213.821C357.022 213.821 363.646 211.948 368.582 208.197C373.518 204.446 375.986 199.246 375.986 192.598C375.986 188.506 375.033 185.289 373.129 182.945C371.223 180.604 368.387 178.621 364.621 177.001C360.854 175.381 356.242 173.804 350.787 172.269C348.102 171.417 345.829 170.65 343.967 169.968C342.105 169.286 340.721 168.498 339.811 167.604Z" fill="white"/>
<path d="M423.727 210.723C425.777 209.871 427.525 209.118 428.976 208.46L424.991 194.823C423.968 195.292 422.601 195.86 420.892 196.526C419.18 197.192 417.419 197.556 415.601 197.62C413.784 197.683 412.251 197.224 411.004 196.24C409.755 195.259 409.048 193.616 408.883 191.314L407.737 158.514L422.016 158.015L421.549 144.644L407.269 145.143L406.499 123.075L389.104 123.682L389.875 145.75L380.919 146.063L381.385 159.434L390.341 159.12L391.693 197.831C391.832 201.774 392.743 204.94 394.429 207.327C396.116 209.715 398.32 211.419 401.041 212.442C403.763 213.46 406.725 213.916 409.928 213.804C412.349 213.72 414.743 213.396 417.107 212.839C419.471 212.279 421.677 211.575 423.727 210.723Z" fill="white"/>
<path d="M433.908 205.731L451.27 206.946L456.018 139.047L438.656 137.834L433.908 205.731ZM456.892 121.23C457.226 116.446 453.62 112.297 448.836 111.963C444.052 111.629 439.904 115.235 439.569 120.018C439.234 124.802 442.841 128.95 447.625 129.285C452.408 129.619 456.557 126.013 456.892 121.23Z" fill="white"/>
<path d="M553.933 209.319H571.339V167.323C571.339 164.07 571.057 160.859 570.495 157.691C569.931 154.523 568.913 151.675 567.443 149.151C565.969 146.626 563.913 144.612 561.272 143.115C558.629 141.616 555.188 140.866 550.947 140.866C545.576 140.866 540.749 142.088 536.463 144.527C532.176 146.967 528.647 150.498 525.877 155.122C525.011 151.099 522.997 147.716 519.837 144.976C516.675 142.236 512.28 140.866 506.653 140.866C501.023 140.866 496.044 142.046 491.715 144.399C487.384 146.754 483.921 150.115 481.324 154.48V141.906H465.607V209.319H483.012V170.019C484.312 165.876 486.497 162.535 489.572 159.999C492.645 157.462 495.872 156.194 499.249 156.194C502.539 156.194 505.115 157.431 506.977 159.906C508.839 162.382 509.771 166.307 509.771 171.683V209.319H527.176V170.274C528.475 166.094 530.66 162.702 533.736 160.098C536.808 157.496 540.035 156.194 543.412 156.194C546.703 156.194 549.277 157.454 551.141 159.97C553.003 162.487 553.933 166.392 553.933 171.683V209.319Z" fill="white"/>
<path d="M650.105 209.833C651.254 209.581 652.674 209.236 654.372 208.797L652.892 194.716C651.409 194.701 650.306 194.345 649.58 193.647C648.853 192.947 648.396 191.705 648.208 189.919L643.192 142.187L625.881 144.007L630.252 185.596C629.244 188.433 627.906 190.832 626.242 192.799C624.576 194.767 622.693 196.307 620.589 197.421C618.486 198.539 616.314 199.213 614.076 199.449C610.372 199.839 607.437 198.835 605.27 196.437C603.102 194.041 601.75 190.292 601.214 185.185L597.202 147.02L579.893 148.84L584.304 190.813C585.21 199.432 587.708 205.789 591.794 209.889C595.882 213.988 601.414 215.669 608.39 214.936C614.074 214.339 619.16 212.616 623.652 209.775C628.14 206.932 631.654 203.089 634.194 198.251L635.146 203.579C635.749 206.016 637.096 207.836 639.181 209.04C641.268 210.245 643.86 210.685 646.961 210.36C647.908 210.26 648.956 210.085 650.105 209.833Z" fill="white"/>
<path d="M685.204 205.397C688.356 205.011 691.137 204.337 693.548 203.375L692.14 189.997C690.98 190.435 689.655 190.778 688.163 191.021C686.668 191.263 685.231 191.337 683.851 191.239C682.036 191.113 680.648 190.473 679.688 189.317C678.727 188.161 678.356 186.023 678.573 182.901L683.683 109.847L666.319 108.633L660.787 187.759C660.411 193.129 661.612 197.369 664.389 200.478C667.167 203.59 671.276 205.334 676.717 205.715C679.223 205.89 682.052 205.782 685.204 205.397Z" fill="white"/>
<path d="M719.013 126.341C718.846 121.549 714.825 117.8 710.033 117.967C705.241 118.135 701.492 122.155 701.658 126.948C701.826 131.739 705.846 135.489 710.638 135.321C715.432 135.153 719.18 131.133 719.013 126.341ZM719.554 144.169L702.158 144.776L704.534 212.799L721.929 212.191L719.554 144.169Z" fill="white"/>
<path d="M74.8739 197.795C72.2539 198.668 70.8632 201.563 71.8712 204.135C90.5405 251.789 143.503 276.96 192.613 260.583C241.722 244.205 268.974 192.283 255.302 142.961C254.565 140.3 251.715 138.819 249.095 139.693L74.8739 197.795Z" fill="white"/>
<path d="M268.746 116.099C270.136 116.11 271.27 114.957 271.208 113.569C270.074 87.8272 248.942 67.2126 222.882 67.0192C196.82 66.8246 175.384 87.1219 173.867 112.843C173.784 114.231 174.9 115.401 176.291 115.411L268.746 116.099Z" fill="white"/>
<path d="M120.792 165.344C142.289 158.174 153.904 134.934 146.735 113.438C139.565 91.9411 116.327 80.3251 94.8292 87.4944C73.3319 94.6638 61.7172 117.902 68.8865 139.401C76.0559 160.897 99.2945 172.513 120.792 165.344Z" fill="white"/>
</g>
</svg>
