<svg width="866" height="855" viewBox="0 0 866 855" fill="none" xmlns="http://www.w3.org/2000/svg">
<path d="M152.883 378.936C145.087 376.539 136.778 381.11 134.787 389.021C97.8879 535.586 181.987 686.956 328.115 731.86C474.244 776.764 628.831 698.736 680.601 556.74C683.396 549.079 679.089 540.63 671.292 538.236L152.883 378.936Z" fill="#E8E8F9"/>
<path d="M318.921 379.734C382.889 399.39 450.679 363.465 470.332 299.501C489.988 235.534 454.069 167.742 390.101 148.086C326.134 128.431 258.346 164.352 238.688 228.323C219.034 292.286 254.953 360.078 318.921 379.734Z" fill="#E8E8F9"/>
<path d="M759.002 515.249C762.327 517.661 767.029 516.834 769.263 513.393C810.704 449.58 795.289 363.777 732.989 318.597C670.689 273.411 584.343 285.411 536.562 344.625C533.982 347.819 534.658 352.545 537.981 354.956L759.002 515.249Z" fill="#E8E8F9"/>
</svg>
