<svg width="402" height="402" viewBox="0 0 402 402" fill="none" xmlns="http://www.w3.org/2000/svg">
<g clip-path="url(#clip0_7_33)">
<path d="M401.129 311.475C399.992 308.049 392.758 303.002 379.432 296.346C375.822 294.248 370.678 291.397 364.022 287.78C357.36 284.163 351.313 280.83 345.892 277.784C340.46 274.739 335.371 271.789 330.616 268.938C329.856 268.367 327.477 266.704 323.48 263.938C319.479 261.18 316.105 259.133 313.34 257.798C310.581 256.471 307.867 255.803 305.202 255.803C301.396 255.803 296.642 258.517 290.934 263.938C285.226 269.366 279.99 275.262 275.234 281.644C270.477 288.023 265.432 293.919 260.108 299.344C254.776 304.771 250.395 307.482 246.973 307.482C245.255 307.482 243.113 307.003 240.546 306.058C237.98 305.107 236.028 304.292 234.688 303.635C233.36 302.964 231.081 301.636 227.843 299.631C224.599 297.632 222.795 296.537 222.415 296.346C196.34 281.877 173.977 265.317 155.322 246.67C136.673 228.012 120.111 205.651 105.646 179.573C105.456 179.192 104.359 177.383 102.362 174.149C100.362 170.912 99.029 168.631 98.363 167.295C97.697 165.964 96.888 164.012 95.938 161.443C94.988 158.874 94.511 156.734 94.511 155.019C94.511 151.595 97.224 147.215 102.649 141.885C108.073 136.558 113.975 131.512 120.349 126.757C126.728 122.002 132.624 116.766 138.05 111.058C143.474 105.347 146.186 100.591 146.186 96.785C146.186 94.122 145.52 91.407 144.189 88.648C142.857 85.883 140.811 82.509 138.05 78.51C135.288 74.513 133.623 72.136 133.051 71.371C130.199 66.616 127.252 61.525 124.203 56.1C121.154 50.676 117.826 44.63 114.208 37.969C110.593 31.311 107.74 26.17 105.644 22.554C98.986 9.233 93.943 1.997 90.516 0.859C89.183 0.288 87.183 0 84.521 0C79.379 0 72.671 0.95 64.392 2.856C56.11 4.759 49.593 6.755 44.834 8.852C35.317 12.847 25.23 24.457 14.57 43.678C4.86301 61.566 0.0100098 79.271 0.0100098 96.78C0.0100098 101.915 0.34301 106.911 1.00901 111.769C1.67501 116.622 2.86501 122.095 4.58001 128.187C6.29201 134.277 7.67301 138.801 8.71701 141.747C9.76201 144.695 11.713 149.976 14.569 157.592C17.421 165.206 19.136 169.867 19.707 171.58C26.368 190.234 34.267 206.887 43.402 221.544C58.432 245.906 78.943 271.083 104.923 297.065C130.904 323.045 156.076 343.555 180.44 358.591C195.095 367.725 211.754 375.623 230.405 382.289C232.119 382.857 236.78 384.568 244.391 387.43C252.005 390.284 257.288 392.235 260.236 393.282C263.185 394.33 267.71 395.712 273.795 397.427C279.893 399.142 285.361 400.332 290.214 401.003C295.07 401.66 300.067 401.999 305.203 401.999C322.711 401.999 340.417 397.143 358.308 387.437C377.527 376.781 389.134 366.692 393.131 357.168C395.233 352.414 397.224 345.895 399.127 337.613C401.036 329.335 401.984 322.628 401.984 317.487C401.99 314.814 401.703 312.819 401.129 311.475Z" fill="#0000FF"/>
</g>
<defs>
<clipPath id="clip0_7_33">
<rect width="401.998" height="401.998" fill="white"/>
</clipPath>
</defs>
</svg>
