<svg width="512" height="512" viewBox="0 0 512 512" fill="none" xmlns="http://www.w3.org/2000/svg">
<g clip-path="url(#clip0_26_14)">
<path d="M256 0C205.368 0 155.873 15.0141 113.774 43.1438C71.6751 71.2734 38.863 111.255 19.487 158.033C0.11092 204.811 -4.95873 256.284 4.91908 305.943C14.7969 355.602 39.1785 401.217 74.9808 437.019C110.783 472.822 156.398 497.203 206.057 507.081C255.716 516.959 307.189 511.889 353.967 492.513C400.745 473.137 440.727 440.325 468.856 398.226C496.986 356.127 512 306.632 512 256C512 188.105 485.029 122.99 437.019 74.9807C389.01 26.9714 323.896 0 256 0ZM371.402 227.469C348.564 229.996 328.994 220.968 309.423 209.448C309.423 211.335 309.996 269.811 309.019 297.701C308.042 326.366 297.802 351.596 275.335 370.425C227.705 410.408 160.101 388.817 143.966 327.68C135.209 294.366 142.821 264.354 168.96 240.606C183.68 227.133 201.836 221.137 221.305 218.644C225.482 218.105 229.693 217.869 234.206 217.465V262.737C228.48 264.152 222.686 265.398 216.994 267.082C213.045 268.223 209.192 269.676 205.474 271.427C200.286 273.76 195.705 277.257 192.086 281.645C188.467 286.034 185.906 291.196 184.603 296.733C183.301 302.271 183.29 308.033 184.573 313.575C185.856 319.117 188.397 324.289 192 328.691C196.333 334.682 202.226 339.37 209.038 342.244C215.851 345.119 223.321 346.07 230.636 344.994C245.356 343.208 254.585 333.945 260.042 320.64C263.815 310.11 265.453 298.934 264.859 287.764C264.657 232.792 264.657 177.853 264.556 122.88C264.603 122.315 264.682 121.752 264.792 121.196H308.75C313.667 157.979 332.329 181.288 371.402 184.589V227.469Z" fill="white"/>
</g>
<defs>
<clipPath id="clip0_26_14">
<rect width="512" height="512" fill="white"/>
</clipPath>
</defs>
</svg>
